<svg xmlns="http://www.w3.org/2000/svg" viewBox="0 0 100 100">
	<defs>
		<svg xmlns="http://www.w3.org/2000/svg" viewBox="0 0 100 100" id="vertical-umbrella">
			<g fill="#999999">
				<rect id="pole" x="48" y="40" width="4" height="40"/>
				<polygon id="ferrule" points="45,15 55,15 52,0 48,0"/>
			</g>
			<path id="canopy-segment-1" fill="red" d="
				M 0,50
				Q 0,10 50,10
				Q 20,10 20,50 
				q -10,-10 -20,0
				z
			"/>
			<path id="canopy-segment-2" fill="yellow" d="
				M 20,50
				Q 20,10 50,10
				Q 40,10 40,50
				q -10,-10 -20,0
				z
			"/>
			<path id="canopy-segment-3" fill="blue" d="
				M 40,50
				Q 40,10 50,10
				Q 60,10 60,50
				q -10,-10 -20,0
				z
			"/>
			<path id="canopy-segment-4" fill="orange" d="
				M 60,50
				Q 60,10 50,10
				Q 80,10 80,50
				q -10,-10 -20,0
				z
			"/>
			<path id="canopy-segment-4" fill="purple" d="
				M 80,50
				Q 80,10 50,10
				Q 100,10 100,50
				q -10,-10 -20,0
				z
			"/>
			<path id="handle" fill="#555555" d="
				M 48,80
				a 5,5 0 0 1 -10,0
				l -4,0
				a 7,7 0 0 0 18,0
				z
			"/>
		</svg>
	</defs>
	<use
		x="5"
		y="5"
		width="90"
		height="90"
		transform="translate(-5 5) rotate(45,50,50)"
		href="#vertical-umbrella"
	/>
</svg>
